<mxfile host="app.diagrams.net" modified="2023-12-01T12:38:20.531Z" agent="Mozilla/5.0 (Windows NT 10.0; Win64; x64) AppleWebKit/537.36 (KHTML, like Gecko) Chrome/119.0.0.0 Safari/537.36" version="22.1.5" etag="aVxXAJFRWRxDMXdf244N" type="github">
  <diagram name="Page-1" id="tJtO_J2vnwF6_QbkQ5H2">
    <mxGraphModel>
      <root>
        <mxCell id="0" />
        <mxCell id="1" parent="0" />
      </root>
    </mxGraphModel>
  </diagram>
</mxfile>
